<svg xmlns="http://www.w3.org/2000/svg" viewBox="0 0 191320 333333" shape-rendering="geometricPrecision" text-rendering="geometricPrecision" image-rendering="optimizeQuality" fill-rule="evenodd" clip-rule="evenodd"><path d="M58933 0h76850c4264 0 8154 1751 10987 4574l12 12 12 12 15 15c2813 2832 4559 6716 4559 10973v23556c0 4292-1752 8190-4573 11011-142 142-289 275-441 400-2793 2587-6512 4173-10571 4173h-1787v95310c16476 7215 30527 18935 40591 33602 10556 15382 16733 33994 16733 54037 0 52831-42829 95660-95660 95660S0 290506 0 237675c0-20364 6390-39263 17278-54805 10363-14791 24800-26513 41676-33535V54726h-21c-4270 0-8165-1756-10999-4585l-12 12c-2822-2822-4574-6720-4574-11011V15586c0-4264 1751-8154 4574-10987l12-12 12-12 15-15C50793 1747 54677 1 58933 1zM43136 214547c5572 0 10248 3833 11538 9006 7955 235 15272 1433 20826 4108 26961 12984 30372 8753 36220 1495 4964-6160 11130-13810 25183-19464 7000-2816 14150-4527 21419-5531v-3c4392-606 8774-954 13160-1133-1998-4368-4362-8533-7053-12454-9375-13662-22715-24389-38357-30524-2545-758-4401-3115-4401-5906V48565c0-3404 2759-6163 6162-6163h7950c812 0 1548-288 2109-765 61-67 124-133 189-198 594-593 963-1407 963-2297V15586c0-906-360-1719-939-2298l-24-24c-579-579-1392-939-2298-939H58933c-906 0-1719 360-2297 939l-24 24c-579 579-939 1391-939 2298v23556c0 890 369 1704 963 2297l-12 12 12 12c579 579 1391 939 2297 939h6183c3403 0 6162 2759 6162 6163v104963h-16c0 2513-1554 4871-4052 5777-16243 5897-30130 16692-39870 30595-7783 11109-12921 24226-14499 38436 5424-1218 11818-2419 18489-3319 703-5896 5721-10468 11806-10468zm7333 21254c-2020 1585-4567 2530-7333 2530-2207 0-4274-603-6046-1651-9106 1011-17987 2738-24691 4374 1775 44457 38370 79955 83261 79955 46024 0 83335-37311 83335-83335 0-7781-1065-15311-3056-22453-3345 58-6646 197-9889 461 2612 2826 4209 6606 4209 10757 0 4377-1775 8341-4644 11209-2868 2869-6832 4644-11209 4644-4376 0-8341-1775-11209-4644-2869-2869-4644-6832-4644-11209 0-1503 209-2958 601-4337-9471 4357-14085 10081-17854 14757-9720 12062-15389 19094-51145 1875-4695-2261-11807-3037-19687-2933zm1711 20631c6567 0 11892 5324 11892 11892s-5324 11892-11892 11892-11892-5324-11892-11892 5324-11892 11892-11892zm38947 22955c4377 0 8341 1775 11209 4644 2869 2869 4644 6833 4644 11210s-1775 8341-4644 11209c-2869 2869-6832 4644-11209 4644s-8341-1775-11209-4644c-2869-2869-4644-6832-4644-11209s1775-8341 4644-11210 6832-4644 11209-4644zm5607 10246c-1435-1435-3418-2322-5607-2322-2190 0-4173 888-5608 2322s-2322 3418-2322 5608 888 4173 2322 5607c1435 1435 3418 2322 5608 2322s4173-888 5607-2322c1435-1435 2322-3418 2322-5607 0-2190-888-4174-2322-5608zm38986-22137c4377 0 8341 1775 11209 4644 2869 2869 4644 6832 4644 11209s-1775 8341-4644 11209c-2868 2869-6832 4644-11209 4644s-8341-1775-11209-4644c-2869-2869-4644-6832-4644-11209s1775-8341 4644-11209c2869-2869 6833-4644 11209-4644zm5607 10246c-1434-1435-3417-2322-5607-2322s-4173 888-5608 2322-2322 3417-2322 5607 888 4173 2322 5608c1435 1434 3418 2322 5608 2322s4173-888 5607-2322c1435-1435 2322-3418 2322-5608s-888-4173-2322-5607zm18687-56910c-1434-1434-3417-2322-5607-2322s-4173 888-5608 2322c-1434 1435-2322 3418-2322 5608s888 4173 2322 5607c1435 1435 3418 2322 5608 2322 2191 0 4174-888 5607-2322 1435-1434 2322-3417 2322-5607s-888-4173-2322-5608z" fill-rule="nonzero"/></svg>