<svg xmlns="http://www.w3.org/2000/svg" viewBox="0 0 333333 333333" shape-rendering="geometricPrecision" text-rendering="geometricPrecision" image-rendering="optimizeQuality" fill-rule="evenodd" clip-rule="evenodd"><path d="M165177 33094c8106-12657 18886-19430 30156-21773 10721-2230 21693-302 31172 4481 9337 4711 17327 12264 22235 21370 1846 3423 3271 7048 4192 10809 5506-107 11116 837 16581 2686 10360 3507 20330 10355 28011 19452 7725 9150 13235 20657 14638 33445 645 5882 415 12011-873 18276 5677 5084 10380 10797 13950 16903 5508 9422 8379 19846 8073 30466-308 10678-3829 21368-11107 31226-4584 6207-10630 12048-18269 17286 704 16338-4121 30987-11943 42315-8843 12806-21654 21478-34937 23828-2921 11372-10481 21376-20204 28346-12313 8826-28385 12964-43054 8939-10820-2968-20670-10120-27435-22726-8229 13863-19512 21186-31333 23644-14183 2950-28864-1408-39936-10028-8847-6888-15492-16585-17877-27565-4647-190-9337-1104-13922-2656-10113-3423-19862-10043-27478-18843-7639-8826-13208-19917-14947-32265-904-6426-770-13166 650-20069-4971-4498-9226-9585-12607-15076-5818-9449-9038-20082-8908-31011 130-11024 3624-22182 11233-32544 4426-6028 10255-11776 17639-17044-89-2019-94-4020-20-6002 602-16072 6522-30217 15167-40765 8952-10922 20954-18104 33269-19822l57-8c422-1806 957-3581 1598-5321 3970-10762 12120-19921 22129-25749 10066-5861 22154-8432 33940-5981 11271 2344 22054 9115 30160 21773zm87168 36678c-1794 5907-4993 11853-9867 17641-3716 4418-10310 4987-14728 1272-4418-3716-4987-10310-1272-14728 7877-9353 7946-19167 3802-26854-2865-5316-7614-9768-13209-12591-5456-2752-11619-3893-17470-2676-7804 1623-15382 7669-20629 19975 84 546 128 1104 128 1672v216164c175 527 311 1074 403 1639 3022 18305 10920 27115 19829 29559 8215 2254 17673-391 25222-5802 7400-5305 12686-13084 12761-21239 85-9294-6749-19819-25037-29157-5175-2644-7226-8984-4582-14159s8984-7226 14159-4582c20189 10309 30805 22955 34719 35727 6496-2112 12783-7045 17543-13938 5983-8664 9380-20295 7754-33360-953-4474 999-9246 5165-11677 7914-4626 13742-9774 17719-15160 4496-6089 6667-12543 6849-18880 184-6395-1657-12864-5178-18887-3219-5506-7796-10581-13496-14871-4001-2665-5882-7774-4267-12542 1929-5699 2447-11243 1876-16450-898-8183-4520-15661-9615-21696-5139-6087-11683-10627-18390-12896-3472-1175-6938-1714-10187-1500zM78253 262751c4172-13135 15193-26233 35982-36848 5175-2644 11514-593 14159 4582 2644 5175 593 11514-4582 14159-19268 9839-26514 21119-26504 30972 9 7676 4379 14873 10748 19832 6461 5031 14820 7617 22681 5982 9825-2043 19293-11117 24185-30910V62543c-4917-19650-14365-28671-24171-30710-6466-1344-13313 191-19171 3602-5916 3445-10685 8727-12939 14836-2999 8130-1221 18141 8948 27562 4237 3920 4494 10533 574 14769-3920 4237-10532 4494-14769 574-7916-7333-12794-15107-15237-22857-6229 1481-12404 5626-17361 11674-5824 7107-9817 16721-10229 27738-109 2935 41 6009 487 9204l-14 2c569 4128-1278 8396-5052 10726-7623 4693-13278 9846-17211 15205-4787 6519-6983 13342-7061 19943-80 6695 1971 13335 5672 19347 3117 5062 7411 9686 12616 13557 3916 2687 5742 7740 4143 12459-2067 6107-2515 12034-1737 17558 1120 7954 4788 15192 9838 21027 5072 5861 11468 10238 18027 12458 2698 913 5390 1443 7977 1533zm2392-147811c4124-4056 10755-4000 14811 123 4056 4124 4000 10755-123 14810-8979 8831-13661 20236-14147 31904-500 12017 3408 24346 11617 34527 3625 4509 2909 11104-1600 14729-4509 3626-11104 2909-14729-1600-11463-14218-16918-31531-16213-48476 702-16843 7448-33294 20384-46017zm148607 10073c-4690-3398-5737-9956-2339-14646 3399-4690 9957-5737 14647-2339 2087 1518 4059 3119 5913 4789 13657 12313 21100 28553 22472 45370 1358 16650-3283 33848-13781 48280-1543 2121-3209 4179-4997 6162-3874 4305-10506 4654-14811 780s-4654-10506-780-14810c1294-1436 2496-2919 3602-4439 7490-10297 10806-22526 9843-34331-949-11637-6109-22884-15578-31421-1315-1185-2713-2320-4190-3394z" fill-rule="nonzero"/></svg>